<?xml version="1.0" encoding="UTF-8"?>
<svg width="800" height="200" viewBox="0 0 800 200" version="1.1" xmlns="http://www.w3.org/2000/svg">
  <defs>
    <linearGradient id="logoGradient" x1="0%" y1="0%" x2="100%" y2="0%">
      <stop offset="0%" style="stop-color:#ffffff;stop-opacity:1" />
      <stop offset="100%" style="stop-color:#10b981;stop-opacity:1" />
    </linearGradient>
  </defs>
  <g id="logo" fill="currentColor">
    <path d="M50 80 h60 v40 h-60 z M110 60 h20 v80 h-20 z M130 80 h40 v40 h-40 z M190 60 h20 v80 h-20 z M230 60 h60 v20 h-40 v20 h40 v20 h-60 z M310 60 h60 v20 h-40 v20 h30 v20 h-30 v20 h40 v20 h-60 z M390 60 h20 v80 h-20 z M430 60 h60 v20 h-40 v20 h30 v20 h-30 v20 h40 v20 h-60 z M510 60 h60 v20 h-20 v60 h-20 v-60 h-20 z M590 60 h60 v20 h-20 v60 h-20 v-60 h-20 z M670 60 h80 v20 h-30 v60 h-20 v-60 h-30 z" />
  </g>
</svg>